<?xml version="1.0" encoding="utf-8"?>
<!-- Generator: Adobe Illustrator 24.3.0, SVG Export Plug-In . SVG Version: 6.00 Build 0)  -->
<svg version="1.1" id="Layer_1" xmlns="http://www.w3.org/2000/svg" xmlns:xlink="http://www.w3.org/1999/xlink" x="0px" y="0px"
	 viewBox="0 0 120 120" enable-background="new 0 0 120 120" xml:space="preserve">
<g>
	<g>
		<path fill="#7CBB00" d="M51.746,73.221v9.771c0,1.079,0.875,1.954,1.954,1.954h11.725c1.079,0,1.954-0.875,1.954-1.954v-9.771
			H51.746z"/>
		<g>
			<path fill="#FFBB00" d="M28.296,39.022v14.657c0,4.316,3.5,7.816,7.816,7.816h2.932v-3.908h0.978V36.091h-8.794
				C29.608,36.091,28.296,37.404,28.296,39.022z"/>
			<polygon fill="#FFBB00" points="45.884,57.587 46.861,57.587 46.861,61.495 72.265,61.495 72.265,57.587 73.242,57.587 
				73.242,36.091 45.884,36.091 			"/>
			<path fill="#FFBB00" d="M87.898,36.091h-8.794v21.496h0.978v3.908h2.932c4.316,0,7.816-3.5,7.816-7.816V39.022
				C90.83,37.404,89.517,36.091,87.898,36.091z"/>
		</g>
		<g>
			<polygon fill="#F65314" points="40.021,69.312 42.953,73.221 45.884,69.312 45.884,65.404 40.021,65.404 			"/>
			<rect x="40.021" y="36.091" fill="#F65314" width="5.862" height="21.496"/>
			<polygon fill="#F65314" points="73.242,69.312 76.173,73.221 79.104,69.312 79.104,65.404 73.242,65.404 			"/>
			<rect x="73.242" y="36.091" fill="#F65314" width="5.862" height="21.496"/>
		</g>
	</g>
	<g>
		<path fill="#1A171B" d="M87.899,35.358H71.044v-1.222c0-3.637-2.959-6.596-6.595-6.596h-9.772c-3.637,0-6.596,2.959-6.596,6.596
			v1.222H31.227c-2.021,0-3.664,1.644-3.664,3.664v14.656c0,3.775,2.462,6.981,5.862,8.11v24.135c0,3.098,2.521,5.617,5.618,5.617
			h41.038c3.099,0,5.619-2.52,5.619-5.617V61.788c3.4-1.129,5.862-4.335,5.862-8.11V39.022
			C91.563,37.001,89.919,35.358,87.899,35.358z M73.975,36.824h4.396v20.031h-4.396V36.824z M72.997,58.32h6.352v6.352h-6.352V58.32
			z M78.371,66.136v2.932l-2.198,2.932l-2.198-2.932v-2.932H78.371z M49.548,34.136c0-2.828,2.302-5.129,5.13-5.129h9.772
			c2.828,0,5.129,2.301,5.129,5.129v1.222h-20.03V34.136z M46.617,36.824h25.892v20.031h-0.244c-0.404,0-0.732,0.328-0.732,0.732
			v3.175H47.594v-3.175c0-0.404-0.328-0.732-0.732-0.732h-0.244V36.824z M40.754,36.824h4.397v20.031h-4.397V36.824z M39.777,58.32
			h6.351v6.352h-6.351V58.32z M45.151,66.136v2.932l-2.199,2.932l-2.198-2.932v-2.932H45.151z M29.029,53.678V39.022
			c0-1.212,0.986-2.198,2.198-2.198h8.061v20.031h-0.244c-0.404,0-0.732,0.328-0.732,0.732v3.175h-2.198
			C32.206,60.762,29.029,57.584,29.029,53.678z M84.235,85.923c0,2.289-1.863,4.152-4.153,4.152H39.044
			c-2.29,0-4.152-1.863-4.152-4.152V62.13c0.4,0.058,0.806,0.098,1.222,0.098h2.198v3.176c0,0.404,0.328,0.732,0.732,0.732h0.244
			v3.176c0,0.159,0.052,0.314,0.147,0.441l2.932,3.909c0.138,0.184,0.354,0.293,0.585,0.293c0.231,0,0.448-0.109,0.586-0.293
			l2.932-3.909c0.096-0.127,0.147-0.281,0.147-0.441v-3.176h0.244c0.404,0,0.732-0.328,0.732-0.732v-3.176h23.939v3.176
			c0,0.404,0.328,0.732,0.732,0.732h0.244v3.176c0,0.159,0.052,0.314,0.147,0.441l2.931,3.909c0.139,0.184,0.355,0.293,0.586,0.293
			c0.231,0,0.448-0.109,0.586-0.293l2.932-3.909c0.096-0.127,0.146-0.281,0.146-0.441v-3.176h0.244c0.405,0,0.733-0.328,0.733-0.732
			v-3.176h2.199c0.416,0,0.821-0.04,1.222-0.098V85.923z M90.098,53.678c0,3.906-3.178,7.084-7.084,7.084h-2.199v-3.175
			c0-0.404-0.328-0.732-0.733-0.732h-0.244V36.824h8.062c1.212,0,2.198,0.986,2.198,2.198V53.678z"/>
		<path fill="#1A171B" d="M28.296,84.042c-0.404,0-0.733,0.328-0.733,0.733v4.078c0,0.405,0.328,0.733,0.733,0.733
			c0.405,0,0.733-0.328,0.733-0.733v-4.078C29.029,84.37,28.701,84.042,28.296,84.042z"/>
		<path fill="#1A171B" d="M28.296,66.626c-0.404,0-0.733,0.328-0.733,0.732V79.89c0,0.404,0.328,0.732,0.733,0.732
			c0.405,0,0.733-0.328,0.733-0.732V67.359C29.029,66.954,28.701,66.626,28.296,66.626z"/>
		<path fill="#1A171B" d="M90.83,62.717c-0.404,0-0.732,0.328-0.732,0.732v4.078c0,0.404,0.328,0.733,0.732,0.733
			c0.405,0,0.733-0.329,0.733-0.733v-4.078C91.563,63.045,91.235,62.717,90.83,62.717z"/>
		<path fill="#1A171B" d="M90.83,71.681c-0.404,0-0.732,0.328-0.732,0.732v12.531c0,0.404,0.328,0.732,0.732,0.732
			c0.405,0,0.733-0.328,0.733-0.732V72.413C91.563,72.009,91.235,71.681,90.83,71.681z"/>
		<path fill="#1A171B" d="M79.103,75.589c-0.404,0-0.732,0.328-0.732,0.733v7.89h-4.199c-0.404,0-0.732,0.328-0.732,0.732
			c0,0.404,0.328,0.732,0.732,0.732h4.932c0.404,0,0.732-0.328,0.732-0.732v-8.622C79.836,75.917,79.508,75.589,79.103,75.589z"/>
		<path fill="#1A171B" d="M66.403,66.624h-13.68c-1.481,0-2.688,1.206-2.688,2.688v3.909c0,0.405,0.329,0.733,0.733,0.733h17.588
			c0.404,0,0.732-0.328,0.732-0.733v-3.909C69.09,67.83,67.885,66.624,66.403,66.624z M67.624,72.489H51.502v-3.177
			c0-0.674,0.548-1.221,1.222-1.221h13.68c0.674,0,1.221,0.547,1.221,1.221V72.489z"/>
		<path fill="#1A171B" d="M34.159,41.219c-0.405,0-0.733,0.328-0.733,0.732v8.622c0,0.404,0.328,0.732,0.733,0.732
			c0.404,0,0.732-0.328,0.732-0.732v-8.622C34.892,41.547,34.563,41.219,34.159,41.219z"/>
	</g>
</g>
</svg>
