<?xml version="1.0" encoding="UTF-8"?>
<!DOCTYPE svg PUBLIC "-//W3C//DTD SVG 1.1//EN" "http://www.w3.org/Graphics/SVG/1.1/DTD/svg11.dtd">
<!-- Creator: CorelDRAW -->
<svg xmlns="http://www.w3.org/2000/svg" xml:space="preserve" width="6.82666in" height="6.82666in" style="shape-rendering:geometricPrecision; text-rendering:geometricPrecision; image-rendering:optimizeQuality; fill-rule:evenodd; clip-rule:evenodd"
viewBox="0 0 6.82666 6.82666"
 xmlns:xlink="http://www.w3.org/1999/xlink">
 <defs>
  <style type="text/css">
   <![CDATA[
    .fil0 {fill:none}
    .fil2 {fill:#414141}
    .fil3 {fill:#727272}
    .fil4 {fill:#7E7E7E}
    .fil8 {fill:#A2A2A2}
    .fil5 {fill:#A4A4A5}
    .fil6 {fill:#ABABAB}
    .fil9 {fill:#BBBBBC}
    .fil7 {fill:#BEBEBE}
    .fil1 {fill:#DADADA}
   ]]>
  </style>
 </defs>
 <g id="Layer_x0020_1">
  <metadata id="CorelCorpID_0Corel-Layer"/>
  <g id="_492756872">
   <rect id="_492756728" class="fil0" width="6.82666" height="6.82666"/>
   <rect id="_492756488" class="fil0" x="0.853331" y="0.853331" width="5.12" height="5.12"/>
  </g>
  <g id="_492755360">
   <polygon id="_492756632" class="fil1" points="1.26299,0.940087 1.49628,2.14611 1.56687,2.20251 2.45703,1.45763 2.41575,1.37043 "/>
   <path id="_492755696" class="fil2" d="M1.26299 0.940083l0.0725512 0.375071c0.0597205,-0.0131575 0.116638,-0.0402047 0.165898,-0.0817638 0.0528346,-0.0445709 0.0906693,-0.100583 0.113201,-0.162035l-0.35165 -0.131272z"/>
   <path id="_492756320" class="fil3" d="M5.46409 5.42549l-0.468677 0.395386c-0.123177,0.103917 -0.314394,0.0821614 -0.424906,-0.048311l-0.17615 -0.207957 0.916583 -0.773252 0.176146 0.207957c0.110531,0.130488 0.100181,0.32226 -0.0229961,0.426177z"/>
   <path id="_492756032" class="fil4" d="M4.62714 5.36823l-0.00375984 0.00317323 -0.22902 0.193205 -2.89663 -3.41971 0.00551969 -0.00465748c0.0521732,0.00431496 0.104307,-0.0102008 0.145539,-0.0449882 0.0412323,-0.0347835 0.0642402,-0.0836575 0.0686654,-0.135717l0.0130551 -0.0110157 2.89663 3.41971z"/>
   <path id="_492755768" class="fil5" d="M4.85265 5.17798l-0.00375984 0.00316929 -0.221756 0.187079 -2.89663 -3.41971 0.0021378 -0.00180315c0.0521772,0.00431102 0.104295,-0.0101969 0.145528,-0.0449764 0.0412283,-0.0347835 0.064252,-0.0836654 0.0686732,-0.135728l0.00917717 -0.00774016 2.89663 3.41971z"/>
   <path id="_492755816" class="fil4" d="M5.07817 4.98773l-0.00375591 0.00317323 -0.221756 0.187079 -2.89663 -3.41971 0.00789764 -0.00666535c0.0521732,0.00432283 0.104295,-0.0101929 0.145528,-0.0449803 0.0412323,-0.0347835 0.0642402,-0.0836575 0.0686654,-0.135717l0.0034252 -0.00288976 2.89663 3.41971z"/>
   <path id="_492755576" class="fil5" d="M5.31094 4.79135l-0.232776 0.196374 -2.89663 -3.41971 0.0117677 -0.00992913c0.0521732,0.00431496 0.104295,-0.0101929 0.145528,-0.0449764 0.0412323,-0.0347874 0.064252,-0.0836693 0.0686772,-0.135732l0.00679921 -0.00573622 2.89663 3.41971z"/>
   <polygon id="_492754976" class="fil6" points="4.62714,5.36823 4.62338,5.3714 4.39436,5.56461 3.9603,5.05216 4.18988,4.85848 4.19307,4.85578 "/>
   <polygon id="_492754904" class="fil7" points="4.85265,5.17798 4.84889,5.18115 4.62714,5.36823 4.19307,4.85578 4.41539,4.66823 4.41859,4.66553 "/>
   <polygon id="_492754856" class="fil6" points="5.07817,4.98773 5.07441,4.9909 4.85265,5.17798 4.41859,4.66553 4.64091,4.47798 4.6441,4.47528 "/>
   <polygon id="_492755384" class="fil7" points="5.31094,4.79135 5.07817,4.98773 4.6441,4.47528 4.87688,4.27891 "/>
  </g>
  <g id="_492752696">
   <polygon id="_492754784" class="fil1" points="5.56367,0.940087 5.33038,2.14611 5.2598,2.20251 4.36963,1.45763 4.41091,1.37043 "/>
   <path id="_492754568" class="fil2" d="M5.56367 0.940083l-0.0725512 0.375071c-0.0597205,-0.0131575 -0.116638,-0.0402047 -0.165898,-0.0817638 -0.0528346,-0.0445709 -0.0906693,-0.100583 -0.113201,-0.162035l0.35165 -0.131272z"/>
   <path id="_492754544" class="fil3" d="M1.36257 5.42549l0.468677 0.395386c0.123177,0.103917 0.314394,0.0821614 0.424906,-0.048311l0.17615 -0.207957 -0.916583 -0.773252 -0.176146 0.207957c-0.110531,0.130488 -0.100181,0.32226 0.0229961,0.426177z"/>
   <path id="_492754208" class="fil8" d="M2.19952 5.36823l0.00375984 0.00317323 0.22902 0.193205 2.89663 -3.41971 -0.00551969 -0.00465748c-0.0521732,0.00431496 -0.104307,-0.0102008 -0.145539,-0.0449882 -0.0412323,-0.0347835 -0.0642402,-0.0836575 -0.0686654,-0.135717l-0.0130551 -0.0110157 -2.89663 3.41971z"/>
   <path id="_492753680" class="fil9" d="M1.97401 5.17798l0.00375984 0.00316929 0.221756 0.187079 2.89663 -3.41971 -0.0021378 -0.00180315c-0.0521772,0.00431102 -0.104295,-0.0101969 -0.145528,-0.0449764 -0.0412283,-0.0347835 -0.064252,-0.0836654 -0.0686732,-0.135728l-0.00917717 -0.00774016 -2.89663 3.41971z"/>
   <path id="_492753416" class="fil8" d="M1.7485 4.98773l0.00375591 0.00317323 0.221756 0.187079 2.89663 -3.41971 -0.00789764 -0.00666535c-0.0521732,0.00432283 -0.104295,-0.0101929 -0.145528,-0.0449803 -0.0412323,-0.0347835 -0.0642402,-0.0836575 -0.0686654,-0.135717l-0.0034252 -0.00288976 -2.89663 3.41971z"/>
   <path id="_492753656" class="fil9" d="M1.51572 4.79135l0.232776 0.196374 2.89663 -3.41971 -0.0117677 -0.00992913c-0.0521732,0.00431496 -0.104295,-0.0101929 -0.145528,-0.0449764 -0.0412323,-0.0347874 -0.064252,-0.0836693 -0.0686772,-0.135732l-0.00679921 -0.00573622 -2.89663 3.41971z"/>
   <polygon id="_492753920" class="fil6" points="2.19952,5.36823 2.20328,5.3714 2.4323,5.56461 2.86637,5.05216 2.63678,4.85848 2.63359,4.85578 "/>
   <polygon id="_492753848" class="fil7" points="1.97401,5.17798 1.97777,5.18115 2.19952,5.36823 2.63359,4.85578 2.41127,4.66823 2.40807,4.66553 "/>
   <polygon id="_492752888" class="fil6" points="1.7485,4.98773 1.75225,4.9909 1.97401,5.17798 2.40807,4.66553 2.18575,4.47798 2.18256,4.47528 "/>
   <polygon id="_492752768" class="fil7" points="1.51572,4.79135 1.7485,4.98773 2.18256,4.47528 1.94978,4.27891 "/>
  </g>
 </g>
</svg>
