<svg xmlns="http://www.w3.org/2000/svg" viewBox="0 0 48 48"><defs><style>.cls-1{fill:#42a5f5;}.cls-2{fill:#424242;}</style></defs><title>Digital Marketing</title><g id="Digital_Marketing" data-name="Digital Marketing"><path class="cls-1" d="M34,8a1,1,0,0,0-2,0A1,1,0,0,0,34,8Z"/><path class="cls-1" d="M41,13a1,1,0,0,0,0,2A1,1,0,0,0,41,13Z"/><path class="cls-1" d="M37,0A11,11,0,0,0,26.85,15.23L26,22l5.63-1.41A11,11,0,1,0,37,0ZM30,8a3,3,0,1,1,3,3A3,3,0,0,1,30,8Zm3.78,8.62a1,1,0,0,1-1.56-1.24l8-10a1,1,0,0,1,1.56,1.24ZM41,17a3,3,0,1,1,3-3A3,3,0,0,1,41,17Z"/><path class="cls-1" d="M42,32a6,6,0,0,0-6,6v4a6,6,0,0,0,12,0V38A6,6,0,0,0,42,32Zm1,6a1,1,0,0,1-2,0V36a1,1,0,0,1,2,0Z"/><path class="cls-2" d="M43,28v2.06a8.36,8.36,0,0,0-2,0V28a1,1,0,0,0-1-1H33a1,1,0,0,0-1,1V42a3,3,0,0,1-3,3H9a3,3,0,0,1-3-3V40H8v2a1,1,0,0,0,1,1H29a1,1,0,0,0,1-1V28a3,3,0,0,1,3-3h7A3,3,0,0,1,43,28Z"/><path class="cls-1" d="M22,28V22a3,3,0,0,1,0,6Z"/><path class="cls-2" d="M21.49,16.14a27.9,27.9,0,0,1-10.4,3.7c-1.54.22-.35.16-6.09.16a5,5,0,0,0-1,9.9V37a1,1,0,0,0,1,1h5a1,1,0,0,0,1-1c0-2.77.2-2.21-1-3.41V30c10.15,1.45,11.09,4.66,12.49,3.86.73-.41.51.32.51-16.87A1,1,0,0,0,21.49,16.14ZM2,25a3,3,0,0,1,3-3H9v6H5A3,3,0,0,1,2,25ZM9,36H6V30H8c0,5.08-.27,4.15,1,5.41Zm12-4.71a30,30,0,0,0-10-3.16V21.87a30,30,0,0,0,10-3.16Z"/></g></svg>