<?xml version="1.0" encoding="utf-8"?>
<!-- Generator: Adobe Illustrator 24.0.0, SVG Export Plug-In . SVG Version: 6.00 Build 0)  -->
<svg version="1.1" xmlns="http://www.w3.org/2000/svg" xmlns:xlink="http://www.w3.org/1999/xlink" x="0px" y="0px"
	 viewBox="0 0 256 256" style="enable-background:new 0 0 256 256;" xml:space="preserve">
<style type="text/css">
	.st0{fill:#F98FA6;}
	.st1{fill:#FC657E;}
	.st2{fill:#DAE6F1;}
	.st3{fill:#5290DB;}
	.st4{fill:#FCDD86;}
	.st5{fill:#F5C84C;}
	.st6{fill:#87D147;}
	.st7{fill:#70D6F9;}
	.st8{fill:#EDF4FC;}
	.st9{fill:#9BE5F9;}
	.st10{fill:#B2E26D;}
	.st11{fill:#F9C1A8;}
	.st12{fill:#414344;}
	.st13{fill:#E1FBFF;}
	.st14{fill:#FFE3EC;}
	.st15{fill:#FCBECF;}
	.st16{fill:#EF4460;}
	.st17{fill:#80C2F9;}
	.st18{fill:#3A70BF;}
	.st19{fill:#FCA265;}
	.st20{fill:#5B5D60;}
	.st21{fill:#818182;}
	.st22{fill:#C7D7E5;}
	.st23{fill:#F9D0B4;}
	.st24{fill:#AA6F59;}
	.st25{fill:#D1856D;}
	.st26{fill:#FCC29A;}
	.st27{fill:#29589F;}
	.st28{fill:#F7B386;}
	.st29{fill:#FC8C48;}
	.st30{fill:#FFF0CC;}
	.st31{fill:#57AF12;}
	.st32{fill:#3CAADC;}
	.st33{fill:#EDB311;}
	.st34{fill:#231F20;}
</style>
<g id="Layer_1">
</g>
<g id="Layer_2">
</g>
<g id="Layer_3">
</g>
<g id="Layer_4">
</g>
<g id="Layer_5">
</g>
<g id="Layer_6">
</g>
<g id="Layer_7">
</g>
<g id="Layer_8">
</g>
<g id="Layer_9">
</g>
<g id="Layer_10">
</g>
<g id="Layer_11">
</g>
<g id="Layer_12">
</g>
<g id="Layer_13">
</g>
<g id="Layer_14">
</g>
<g id="Layer_15">
</g>
<g id="Layer_16">
</g>
<g id="Layer_17">
</g>
<g id="Layer_18">
</g>
<g id="Layer_19">
</g>
<g id="Layer_20">
</g>
<g id="Layer_21">
</g>
<g id="Layer_22">
</g>
<g id="Layer_23">
</g>
<g id="Layer_24">
</g>
<g id="Layer_25">
</g>
<g id="Layer_26">
</g>
<g id="Layer_27">
</g>
<g id="Layer_28">
</g>
<g id="Layer_29">
</g>
<g id="Layer_30">
</g>
<g id="Layer_31">
</g>
<g id="Layer_32">
</g>
<g id="Layer_33">
</g>
<g id="Layer_34">
</g>
<g id="Layer_35">
</g>
<g id="Layer_36">
</g>
<g id="Layer_37">
</g>
<g id="Layer_38">
</g>
<g id="Layer_39">
</g>
<g id="Layer_40">
</g>
<g id="Layer_41">
</g>
<g id="Layer_42">
</g>
<g id="Layer_43">
</g>
<g id="Layer_44">
</g>
<g id="Layer_45">
</g>
<g id="Layer_46">
</g>
<g id="Layer_47">
</g>
<g id="Layer_48">
	<g>
		<g>
			<g>
				<path class="st8" d="M186.7,8.5c-31.687,0-57.375,22.833-57.375,51c0,18.64,11.255,34.938,28.05,43.833
					c2.727,1.444,3.603,4.92,1.833,7.448c-2.377,3.394-5.46,6.86-9.457,10.063c-2.497,2-0.556,6.011,2.562,5.294
					c8.367-1.925,19.008-5.95,27.754-14.339c0.988-0.947,2.329-1.438,3.695-1.372c0.973,0.047,1.952,0.073,2.939,0.073
					c31.687,0,57.375-22.833,57.375-51S218.388,8.5,186.7,8.5z"/>
			</g>
		</g>
		<g>
			<g>
				<path class="st11" d="M129.681,65.156c-14.718-1.052-22.626-7.026-25.767-10.105c-0.907-0.889-2.372-0.796-3.162,0.199
					C86.32,73.398,65.031,70.837,57.873,69.339c-1.301-0.272-2.549,0.708-2.55,2.037v31.811c0,21.731,17.78,39.511,39.511,39.511
					c21.731,0,39.511-17.78,39.511-39.511v-22.81C131.951,75.643,130.348,70.525,129.681,65.156z"/>
			</g>
		</g>
		<g>
			<g>
				<path class="st12" d="M139.67,30.303c-3.842-3.026-8.676-4.842-13.917-4.842c-4.21,0-8.147,1.19-11.53,3.218
					c-3.951-6.594-11.15-11.047-19.355-11.047h-11.59c-22.431,0-40.784,18.353-40.784,40.784v18.274
					c2.823-2.259,6.397-3.617,10.293-3.617c0.863,0,1.708,0.073,2.536,0.201v-1.899c0.001-1.329,1.249-2.31,2.55-2.037
					c7.158,1.498,28.447,4.059,42.879-14.09c0.791-0.994,2.255-1.088,3.162-0.199c3.141,3.079,11.05,9.053,25.767,10.105
					c-0.231-1.857-0.355-3.743-0.355-5.656C129.325,48.637,133.158,38.575,139.67,30.303z"/>
			</g>
		</g>
		<g>
			<g>
				<path class="st11" d="M134.346,80.376v22.81c0,0.891-0.041,1.773-0.099,2.65c0.86,0.138,1.736,0.23,2.635,0.23
					c5.606,0,10.552-2.803,13.533-7.078C143.557,94.006,138.022,87.645,134.346,80.376z"/>
			</g>
		</g>
		<g>
			<g>
				<path class="st11" d="M55.323,103.187V73.275c-0.827-0.128-1.672-0.201-2.535-0.201c-9.111,0-16.496,7.386-16.496,16.496
					s7.386,16.496,16.496,16.496c0.899,0,1.775-0.092,2.635-0.23v-0.001C55.363,104.959,55.323,104.077,55.323,103.187z"/>
			</g>
		</g>
		<g>
			<g>
				<path class="st7" d="M174.518,184.212c-0.38-6.813-5.145-12.588-11.762-14.253l-30.685-7.723l-10.845-5.347
					c-4.662-2.299-7.613-7.045-7.613-12.242v-6.726c-5.594,3.045-11.993,4.779-18.777,4.779h0c-6.326,0-12.313-1.516-17.628-4.188
					v6.135c0,5.197-2.952,9.944-7.613,12.242l-10.845,5.347l-30.685,7.723c-6.617,1.666-11.383,7.441-11.762,14.254l-4.369,64.712
					c-0.138,2.485,1.839,4.576,4.328,4.576h158.299c2.489,0,4.466-2.091,4.328-4.576L174.518,184.212z"/>
			</g>
		</g>
		<g>
			<g>
				<path class="st11" d="M121.225,156.887c-4.662-2.299-7.613-7.045-7.613-12.242v-6.726c-5.594,3.045-11.993,4.779-18.777,4.779h0
					c-6.326,0-12.313-1.516-17.628-4.188v6.135c0,5.197-2.952,9.944-7.613,12.242l-1.703,0.84
					c5.147,9.986,15.566,16.861,27.52,16.861s22.373-6.875,27.52-16.861L121.225,156.887z"/>
			</g>
		</g>
		<g>
			<g>
				<path d="M134.346,78.194c-1.381,0-2.5,1.119-2.5,2.5v22.493c0,20.408-16.604,37.012-37.012,37.012s-37.011-16.604-37.011-37.012
					V71.88c7.226,1.429,29.495,3.941,44.634-14.761c3.723,3.54,11.915,9.316,26.495,10.489c1.378,0.107,2.581-0.916,2.692-2.292
					c0.11-1.376-0.915-2.582-2.292-2.692c-13.903-1.118-21.197-6.917-23.688-9.358c-0.937-0.918-2.218-1.4-3.526-1.317
					c-1.307,0.081-2.525,0.717-3.343,1.745C85.468,70.45,66.095,68.505,58.385,66.892c-1.37-0.29-2.78,0.054-3.868,0.938
					c-1.076,0.874-1.694,2.165-1.695,3.573v31.784c0,23.166,18.846,42.012,42.011,42.012c23.166,0,42.012-18.846,42.012-42.012
					V80.694C136.846,79.313,135.727,78.194,134.346,78.194z"/>
			</g>
		</g>
		<g>
			<g>
				<path d="M140.579,27.852c-4.338-3.2-9.464-4.891-14.826-4.891c-3.695,0-7.354,0.839-10.71,2.443
					c-4.709-6.389-12.239-10.271-20.175-10.271h-11.59c-23.867,0-43.284,19.417-43.284,43.284v17.902c0,1.381,1.119,2.5,2.5,2.5
					s2.5-1.119,2.5-2.5V58.417c0-21.11,17.174-38.284,38.284-38.284h11.59c6.982,0,13.577,3.767,17.211,9.832
					c0.341,0.569,0.894,0.979,1.537,1.14c0.643,0.159,1.324,0.059,1.893-0.281c3.123-1.873,6.665-2.862,10.244-2.862
					c4.286,0,8.387,1.354,11.857,3.915c1.111,0.819,2.676,0.583,3.496-0.527C141.926,30.237,141.69,28.672,140.579,27.852z"/>
			</g>
		</g>
		<g>
			<g>
				<path d="M150.135,200.458c-1.381,0-2.5,1.119-2.5,2.5v49.523c0,1.381,1.119,2.5,2.5,2.5s2.5-1.119,2.5-2.5v-49.523
					C152.635,201.577,151.516,200.458,150.135,200.458z"/>
			</g>
		</g>
		<g>
			<g>
				<path d="M40.683,200.458c-1.381,0-2.5,1.119-2.5,2.5v49.523c0,1.381,1.119,2.5,2.5,2.5s2.5-1.119,2.5-2.5v-49.523
					C43.183,201.577,42.064,200.458,40.683,200.458z"/>
			</g>
		</g>
		<g>
			<g>
				<path d="M151.505,97.587c-1.097-0.838-2.665-0.629-3.504,0.468c-2.677,3.502-6.729,5.511-11.12,5.511
					c-0.486,0-0.989-0.032-1.538-0.099c-1.364-0.163-2.617,0.81-2.782,2.181c-0.167,1.371,0.81,2.617,2.181,2.783
					c0.75,0.091,1.45,0.135,2.14,0.135c5.961,0,11.463-2.725,15.093-7.475C152.812,99.995,152.603,98.426,151.505,97.587z"/>
			</g>
		</g>
		<g>
			<g>
				<path d="M57.013,105.672c-0.16-1.372-1.404-2.357-2.771-2.195c-0.518,0.06-0.994,0.089-1.454,0.089
					c-7.717,0-13.996-6.279-13.996-13.997c0-7.717,6.279-13.996,13.996-13.996c0.45,0,0.915,0.024,1.381,0.072
					c1.387,0.144,2.601-0.861,2.741-2.234c0.14-1.374-0.86-2.601-2.234-2.741c-0.634-0.064-1.27-0.097-1.888-0.097
					c-10.475,0-18.996,8.521-18.996,18.996s8.521,18.997,18.996,18.997c0.655,0,1.319-0.04,2.03-0.123
					C56.189,108.285,57.172,107.044,57.013,105.672z"/>
			</g>
		</g>
		<g>
			<g>
				<path d="M181.38,248.756l-4.366-64.684c-0.443-7.949-5.928-14.595-13.647-16.538l-30.429-7.659l-10.607-5.23
					c-3.836-1.891-6.219-5.723-6.219-10v-5.895c0-1.381-1.119-2.5-2.5-2.5s-2.5,1.119-2.5,2.5v5.895
					c0,6.195,3.452,11.745,9.008,14.484l10.845,5.348c0.158,0.078,0.324,0.139,0.495,0.182l30.686,7.724
					c5.586,1.406,9.556,6.216,9.878,11.997l4.366,64.684c0.028,0.509-0.148,0.993-0.499,1.363c-0.35,0.37-0.823,0.574-1.332,0.574
					H16.259c-0.509,0-0.983-0.204-1.333-0.574c-0.35-0.37-0.527-0.854-0.5-1.333l4.37-64.742c0.32-5.752,4.29-10.562,9.876-11.968
					l30.685-7.724c0.171-0.043,0.337-0.104,0.495-0.182l10.846-5.348c5.556-2.74,9.008-8.29,9.008-14.484v-5.313
					c0-1.381-1.119-2.5-2.5-2.5s-2.5,1.119-2.5,2.5v5.313c0,4.277-2.383,8.108-6.219,10l-10.608,5.23l-30.428,7.659
					c-7.721,1.943-13.206,8.59-13.646,16.509l-4.37,64.742c-0.104,1.867,0.573,3.718,1.858,5.077S14.389,256,16.259,256h158.299
					c1.87,0,3.68-0.779,4.965-2.138S181.486,250.652,181.38,248.756z"/>
			</g>
		</g>
		<g>
			<g>
				<path d="M123.706,156.352c-1.208-0.671-2.73-0.232-3.398,0.976c-5.041,9.105-14.581,14.761-24.899,14.761
					c-10.327,0-19.872-5.663-24.91-14.779c-0.667-1.208-2.189-1.648-3.397-0.979c-1.208,0.667-1.647,2.188-0.979,3.397
					c5.917,10.709,17.139,17.361,29.286,17.361c12.136,0,23.353-6.644,29.273-17.339
					C125.351,158.542,124.914,157.02,123.706,156.352z"/>
			</g>
		</g>
		<g>
			<g>
				<path d="M84.818,89.747l-6.411-5.927c-1.013-0.937-2.595-0.875-3.533,0.138c-0.938,1.014-0.875,2.596,0.138,3.533l4.426,4.092
					l-4.426,4.092c-1.014,0.937-1.076,2.519-0.138,3.533c0.493,0.533,1.163,0.803,1.836,0.803c0.607,0,1.216-0.22,1.697-0.665
					l6.411-5.927c0.512-0.473,0.803-1.138,0.803-1.835S85.33,90.22,84.818,89.747z"/>
			</g>
		</g>
		<g>
			<g>
				<path d="M111.38,91.582l4.425-4.092c1.014-0.937,1.076-2.519,0.138-3.533c-0.938-1.013-2.52-1.077-3.533-0.138L106,89.747
					c-0.512,0.473-0.803,1.138-0.803,1.835s0.291,1.362,0.803,1.835l6.411,5.927c0.481,0.445,1.089,0.665,1.697,0.665
					c0.672,0,1.343-0.27,1.836-0.803c0.938-1.014,0.875-2.596-0.138-3.533L111.38,91.582z"/>
			</g>
		</g>
		<g>
			<g>
				<path class="st1" d="M103.372,108.5H87.445c-2.77,0-5.036,2.266-5.036,5.036v2.964c0,7.15,5.85,13,13,13s13-5.85,13-13v-2.964
					C108.409,110.766,106.142,108.5,103.372,108.5z"/>
			</g>
		</g>
		<g>
			<g>
				<path class="st8" d="M103.372,108.5H87.445c-2.77,0-5.036,2.266-5.036,5.036v2.964h26v-2.964
					C108.409,110.766,106.142,108.5,103.372,108.5z"/>
			</g>
		</g>
		<g>
			<g>
				<g>
					<path d="M103.373,106H87.445c-4.156,0-7.537,3.381-7.537,7.537v2.963c0,8.547,6.953,15.5,15.5,15.5s15.5-6.953,15.5-15.5
						v-2.963C110.909,109.381,107.528,106,103.373,106z M105.909,116.5c0,5.79-4.71,10.5-10.5,10.5s-10.5-4.71-10.5-10.5v-2.963
						c0-1.399,1.138-2.537,2.537-2.537h15.927c1.398,0,2.536,1.138,2.536,2.537V116.5z"/>
				</g>
			</g>
		</g>
		<g>
			<g>
				<path d="M107.813,114H83.25c-1.381,0-2.5,1.119-2.5,2.5s1.119,2.5,2.5,2.5h24.563c1.381,0,2.5-1.119,2.5-2.5
					S109.194,114,107.813,114z"/>
			</g>
		</g>
		<g>
			<g>
				<g>
					<path d="M186.7,6c-33.016,0-59.875,24-59.875,53.5c0,18.802,11.258,36.444,29.38,46.042c0.69,0.366,1.17,0.979,1.351,1.728
						c0.175,0.726,0.034,1.463-0.396,2.077c-2.495,3.563-5.515,6.775-8.974,9.546c-2.05,1.643-2.657,4.338-1.511,6.706
						c0.951,1.966,2.829,3.124,4.904,3.124c0.425,0,0.857-0.048,1.293-0.148c7.991-1.838,19.496-5.928,28.924-14.971
						c0.485-0.465,1.179-0.711,1.843-0.679c1.039,0.051,2.068,0.076,3.061,0.076c33.016,0,59.875-24,59.875-53.5S219.716,6,186.7,6z
						 M186.7,108c-0.911,0-1.859-0.023-2.818-0.07c-2.063-0.101-4.075,0.654-5.546,2.065c-8.605,8.253-19.206,12.009-26.584,13.706
						c-0.118,0.027-0.396,0.091-0.576-0.28c-0.18-0.372,0.043-0.55,0.138-0.625c3.829-3.068,7.175-6.628,9.942-10.581
						c1.245-1.779,1.668-4.008,1.16-6.116c-0.514-2.13-1.924-3.943-3.871-4.975c-16.481-8.729-26.72-24.678-26.72-41.624
						c0-26.743,24.617-48.5,54.875-48.5s54.875,21.757,54.875,48.5S216.958,108,186.7,108z"/>
				</g>
			</g>
		</g>
		<g>
			<g>
				<g>
					<path d="M165.592,53.475h-2.597l0.936-4.406c0.147-0.697-0.383-1.347-1.09-1.347h-2.391c-0.527,0-0.981,0.368-1.09,0.883
						l-1.035,4.87h-3.584l0.936-4.406c0.147-0.697-0.383-1.347-1.09-1.347h-2.391c-0.527,0-0.981,0.368-1.09,0.883l-1.035,4.87
						h-3.795c-0.616,0-1.115,0.5-1.115,1.115v2.335c0,0.615,0.499,1.115,1.115,1.115h2.815l-0.491,2.273h-3.908
						c-0.616,0-1.115,0.5-1.115,1.115v2.307c0,0.615,0.499,1.115,1.115,1.115h2.956l-0.934,4.32c-0.149,0.691,0.377,1.35,1.09,1.35
						h2.391c0.526,0,0.98-0.366,1.09-0.88l1.032-4.79h3.584l-0.933,4.32c-0.149,0.691,0.377,1.35,1.09,1.35h2.391
						c0.526,0,0.98-0.366,1.09-0.88l1.032-4.79h3.464c0.616,0,1.115-0.5,1.115-1.115v-2.307c0-0.615-0.499-1.115-1.115-1.115h-2.509
						l0.491-2.273h3.574c0.616,0,1.115-0.5,1.115-1.115V54.59C166.707,53.974,166.207,53.475,165.592,53.475z M156.853,60.313
						h-3.582l0.491-2.273h3.582L156.853,60.313z"/>
				</g>
			</g>
		</g>
		<g>
			<g>
				<g>
					<path d="M184.658,46.359c-10.186,0-17.041,7.191-17.041,16.625c0,9.433,5.81,14.468,15.132,14.623c0.007,0,0.013,0,0.019,0
						c0.52,0,0.971-0.36,1.087-0.868l0.473-2.085c0.156-0.693-0.365-1.354-1.077-1.362c-7.021-0.068-10.903-3.479-10.903-10.308
						c0-7.056,4.37-12.282,11.976-12.282c6.092,0,9.975,3.305,9.975,9.419c0,2.551-0.903,6.223-3.026,6.223
						c-0.315,0-0.446-0.05-0.444-0.048c-0.001,0-0.054-0.099-0.054-0.393c0-0.848,0.778-4.245,0.778-5.754
						c0-4.232-2.864-7.369-7.619-7.369c-5.159,0-9.342,4.231-9.342,10.204c0,4.895,3.149,7.813,7.035,7.813
						c2.133,0,3.921-0.713,5.341-2.125c2.268,4.381,12.146,2.293,12.146-8.635C199.115,51.864,193.9,46.359,184.658,46.359z
						 M182.406,66.344c-2.061,0-3.137-1.595-3.137-3.693c0-3.524,1.97-5.389,4.277-5.389c2.222,0,3.249,1.27,3.249,3.415
						C186.795,64.395,184.656,66.344,182.406,66.344z"/>
				</g>
			</g>
		</g>
		<g>
			<g>
				<path d="M205.753,48.222h-2.806c-0.63,0-1.13,0.52-1.115,1.143l0.362,14.314c0.016,0.605,0.51,1.087,1.115,1.087h2.085
					c0.605,0,1.099-0.482,1.115-1.087l0.36-14.314C206.883,48.741,206.382,48.222,205.753,48.222z"/>
			</g>
		</g>
		<g>
			<g>
				<path d="M205.92,66.315h-3.085c-0.616,0-1.115,0.499-1.115,1.115v2.974c0,0.615,0.499,1.115,1.115,1.115h3.085
					c0.616,0,1.115-0.5,1.115-1.115V67.43C207.035,66.815,206.536,66.315,205.92,66.315z"/>
			</g>
		</g>
		<g>
			<g>
				<path d="M220.875,55.698l-1.314-0.497c-0.466-0.177-0.467-0.838,0-1.015l1.314-0.496c0.378-0.142,0.547-0.589,0.349-0.948
					l-1.205-2.17c-0.203-0.365-0.674-0.446-0.987-0.208l-1.313,0.994c-0.381,0.291-0.928-0.026-0.866-0.503l0.226-1.712
					c0.053-0.404-0.262-0.754-0.66-0.754h-2.503c-0.383,0-0.71,0.332-0.662,0.748l0.207,1.752c0.058,0.476-0.492,0.783-0.867,0.495
					l-1.379-1.05c-0.33-0.25-0.787-0.14-0.982,0.199l-1.267,2.201c-0.202,0.349-0.044,0.81,0.342,0.957l1.308,0.497
					c0.465,0.176,0.465,0.837,0,1.014l-1.308,0.498c-0.389,0.147-0.54,0.601-0.345,0.95l1.267,2.262
					c0.197,0.355,0.666,0.452,0.991,0.201l1.386-1.076c0.38-0.293,0.925,0.014,0.872,0.489l-0.194,1.735
					C213.24,60.641,213.537,61,213.947,61h2.473c0.415,0,0.712-0.368,0.66-0.754l-0.222-1.697c-0.062-0.468,0.475-0.798,0.868-0.502
					l1.277,0.975c0.333,0.257,0.793,0.136,0.984-0.2l1.235-2.171C221.428,56.288,221.248,55.839,220.875,55.698z"/>
			</g>
		</g>
		<g>
			<g>
				<path d="M227.294,48.222h-2.806c-0.63,0-1.13,0.52-1.115,1.143l0.361,14.314c0.016,0.605,0.51,1.087,1.115,1.087h2.085
					c0.605,0,1.099-0.482,1.115-1.087l0.36-14.314C228.424,48.741,227.922,48.222,227.294,48.222z"/>
			</g>
		</g>
		<g>
			<g>
				<path d="M227.46,66.315h-3.085c-0.616,0-1.115,0.499-1.115,1.115v2.974c0,0.615,0.499,1.115,1.115,1.115h3.085
					c0.616,0,1.115-0.5,1.115-1.115V67.43C228.575,66.815,228.076,66.315,227.46,66.315z"/>
			</g>
		</g>
		<g>
			<g>
				<path class="st5" d="M51.983,15.697c-4.498-0.838-8.043-4.31-8.898-8.717c-0.043-0.221-0.352-0.221-0.395,0
					c-0.855,4.406-4.4,7.879-8.898,8.717c-0.226,0.042-0.226,0.345,0,0.387c4.498,0.838,8.043,4.31,8.898,8.717
					c0.043,0.221,0.352,0.221,0.395,0c0.855-4.406,4.4-7.879,8.898-8.717C52.209,16.042,52.209,15.739,51.983,15.697z"/>
			</g>
		</g>
		<g>
			<g>
				<path class="st6" d="M57.89,142.765c-2.913-0.542-5.209-2.792-5.762-5.645c-0.028-0.143-0.228-0.143-0.256,0
					c-0.554,2.854-2.85,5.103-5.763,5.645c-0.146,0.027-0.146,0.223,0,0.25c2.913,0.542,5.209,2.792,5.763,5.645
					c0.028,0.143,0.228,0.143,0.256,0c0.554-2.854,2.849-5.103,5.762-5.645C58.037,142.989,58.037,142.793,57.89,142.765z"/>
			</g>
		</g>
		<g>
			<g>
				<path class="st1" d="M199.694,184.302h-2.329v-2.33c0-1.744-1.413-3.157-3.157-3.157c-1.744,0-3.157,1.413-3.157,3.157v2.33
					h-2.33c-1.744,0-3.157,1.413-3.157,3.157c0,1.744,1.413,3.157,3.157,3.157h2.33v2.33c0,1.744,1.413,3.157,3.157,3.157
					c1.744,0,3.157-1.414,3.157-3.157v-2.33h2.329c1.744,0,3.157-1.413,3.157-3.157
					C202.851,185.715,201.438,184.302,199.694,184.302z"/>
			</g>
		</g>
		<g>
			<g>
				<circle class="st7" cx="67.999" cy="3.377" r="3.377"/>
			</g>
		</g>
		<g>
			<g>
				<circle class="st5" cx="178.999" cy="162.377" r="3.377"/>
			</g>
		</g>
	</g>
</g>
<g id="Layer_49">
</g>
<g id="Layer_50">
</g>
<g id="Layer_51">
</g>
<g id="Layer_52">
</g>
<g id="Layer_53">
</g>
<g id="Layer_54">
</g>
<g id="Layer_55">
</g>
<g id="Layer_56">
</g>
<g id="Layer_57">
</g>
<g id="Layer_58">
</g>
<g id="Layer_59">
</g>
<g id="Layer_60">
</g>
<g id="Layer_61">
</g>
<g id="Layer_62">
</g>
<g id="Layer_63">
</g>
<g id="Layer_64">
</g>
<g id="Layer_65">
</g>
<g id="Layer_66">
</g>
<g id="Layer_67">
</g>
<g id="Layer_68">
</g>
<g id="Layer_69">
</g>
<g id="Layer_70">
</g>
<g id="Layer_71">
</g>
<g id="Layer_72">
</g>
<g id="Layer_73">
</g>
<g id="Layer_74">
</g>
<g id="Layer_75">
</g>
<g id="Layer_76">
</g>
<g id="Layer_77">
</g>
<g id="Layer_78">
</g>
<g id="Layer_79">
</g>
<g id="Layer_80">
</g>
<g id="Layer_81">
</g>
<g id="Layer_82">
</g>
<g id="Layer_83">
</g>
<g id="Layer_84">
</g>
<g id="Layer_85">
</g>
</svg>
