<?xml version="1.0" encoding="utf-8"?>
<!-- Generator: Adobe Illustrator 22.0.1, SVG Export Plug-In . SVG Version: 6.00 Build 0)  -->
<svg version="1.1" id="Layer_1" xmlns="http://www.w3.org/2000/svg" xmlns:xlink="http://www.w3.org/1999/xlink" x="0px" y="0px"
	 viewBox="0 0 256 256" style="enable-background:new 0 0 256 256;" xml:space="preserve">
<style type="text/css">
	.st0{fill:#3A312A;}
	.st1{fill:#D6DF58;}
	.st2{fill:#87796F;}
	.st3{fill:#B9C239;}
	.st4{fill:#EF6D7A;}
	.st5{fill:#FCE8CB;}
	.st6{fill:#D5DE58;}
	.st7{fill:#D34E5C;}
	.st8{fill:#695B51;}
	.st9{fill:#8AC6DD;}
	.st10{fill:#D7E057;}
	.st11{fill:#B8C136;}
	.st12{fill:#F16C7A;}
	.st13{fill:#8AC2D9;}
	.st14{fill:#F7E3C7;}
	.st15{fill:#8AC3DA;}
	.st16{fill:#6DA3BC;}
	.st17{fill:#6A5C52;}
	.st18{fill:#D5DC57;}
	.st19{fill:#F6E2C6;}
	.st20{fill:#DBC7AA;}
	.st21{fill:#CE4E61;}
	.st22{fill:#FAE6CA;}
	.st23{fill:#8AC5DC;}
	.st24{fill:#DDC9AC;}
	.st25{fill:#DECAAD;}
	.st26{fill:#6CA6BE;}
	.st27{fill:#F8E4C8;}
	.st28{fill:#89C4DB;}
	.st29{fill:#ED6E7A;}
	.st30{fill:#D24E5C;}
	.st31{fill:#6DA4BD;}
	.st32{fill:#EB6E7A;}
	.st33{fill:#68A7BB;}
	.st34{fill:#B9BC37;}
	.st35{fill:#CC4E61;}
	.st36{fill:#6CA8BF;}
	.st37{fill-rule:evenodd;clip-rule:evenodd;fill:#D5DE58;}
	.st38{fill:#EA6D7A;}
	.st39{fill:#F4E0C4;}
	.st40{fill-rule:evenodd;clip-rule:evenodd;fill:#D6DF58;}
	.st41{fill-rule:evenodd;clip-rule:evenodd;fill:#F16C7A;}
	.st42{fill:#F3DEC3;}
	.st43{fill-rule:evenodd;clip-rule:evenodd;fill:#FAE6CA;}
	.st44{fill:#F59689;}
	.st45{fill-rule:evenodd;clip-rule:evenodd;fill:#F8E4C8;}
	.st46{fill-rule:evenodd;clip-rule:evenodd;fill:#FCE8CB;}
	.st47{fill:#F5978A;}
	.st48{fill:#D4DB56;}
	.st49{fill-rule:evenodd;clip-rule:evenodd;fill:#D4DA55;}
	.st50{fill-rule:evenodd;clip-rule:evenodd;fill:#EB6E7A;}
	.st51{fill:#68A6B9;}
	.st52{fill-rule:evenodd;clip-rule:evenodd;fill:#D5DC57;}
	.st53{fill:#8AC1D8;}
	.st54{fill:#F5E1C5;}
	.st55{fill:#D4D752;}
	.st56{fill:#D3D751;}
	.st57{fill:#D4D853;}
	.st58{fill:#E96C7A;}
	.st59{fill:#D4DA55;}
	.st60{fill:#8BC0D7;}
	.st61{fill:#87796F;stroke:#3A312A;stroke-width:3;stroke-linecap:round;stroke-linejoin:round;stroke-miterlimit:10;}
</style>
<g>
	<g>
		<g>
			<path class="st2" d="M221.918,115.574c10.461-10.503,16.816-24.249,16.816-39.308c0-32.975-30.401-59.706-67.904-59.706
				c-16.971,0-32.476,5.487-44.38,14.538l-10.975,10.609c-7.892,9.755-12.549,21.676-12.549,34.559
				c0,32.975,30.402,59.706,67.904,59.706c6.214,0,12.226-0.749,17.944-2.123l39.789,13.098c2.649,0.872,5.113-1.743,4.084-4.336
				L221.918,115.574z"/>
		</g>
	</g>
	<g>
		<g>
			<path class="st0" d="M223.672,115.927c10.688-11.065,16.562-25.113,16.562-39.662c0-33.749-31.134-61.206-69.403-61.206
				c-16.615,0-32.698,5.271-45.288,14.844c-0.66,0.501-0.788,1.442-0.286,2.102c0.502,0.659,1.442,0.788,2.102,0.286
				c12.071-9.177,27.509-14.231,43.472-14.231c36.615,0,66.403,26.111,66.403,58.206c0,14.061-5.816,27.645-16.378,38.25
				c-0.422,0.423-0.552,1.057-0.332,1.612l10.729,27.037c0.263,0.662,0.128,1.367-0.36,1.886c-0.488,0.519-1.184,0.696-1.86,0.472
				l-39.789-13.098c-0.264-0.086-0.549-0.099-0.819-0.034c-5.745,1.381-11.665,2.082-17.593,2.082
				c-36.615,0-66.404-26.111-66.404-58.206c0-12.114,4.224-23.738,12.215-33.616c0.521-0.644,0.421-1.588-0.223-2.109
				c-0.644-0.521-1.588-0.421-2.109,0.223c-8.428,10.417-12.883,22.694-12.883,35.502c0,33.749,31.134,61.206,69.404,61.206
				c6.021,0,12.033-0.695,17.877-2.065l39.387,12.965c0.501,0.165,1.013,0.246,1.517,0.246c1.291,0,2.538-0.527,3.465-1.51
				c1.288-1.368,1.658-3.302,0.966-5.049L223.672,115.927z"/>
		</g>
	</g>
	<g>
		<g>
			<path class="st12" d="M85.17,108.883c-23.101,0-43.495,10.152-55.761,25.649l-7.852,13.149c-2.768,6.508-4.29,13.551-4.29,20.908
				c0,15.059,6.354,28.805,16.816,39.308l-10.729,27.037c-1.029,2.593,1.435,5.208,4.084,4.336l39.789-13.098
				c5.718,1.375,11.73,2.123,17.944,2.123c37.502,0,67.904-26.731,67.904-59.706C153.074,135.614,122.672,108.883,85.17,108.883z"/>
		</g>
	</g>
	<g>
		<g>
			<path class="st0" d="M85.17,107.383c-22.659,0-43.943,9.801-56.938,26.217c-0.514,0.65-0.404,1.593,0.245,2.107
				c0.65,0.514,1.593,0.405,2.107-0.245c12.43-15.704,32.836-25.08,54.585-25.08c36.615,0,66.403,26.111,66.403,58.206
				s-29.788,58.206-66.403,58.206c-5.928,0-11.848-0.7-17.594-2.082c-0.27-0.064-0.554-0.052-0.82,0.034l-39.788,13.098
				c-0.676,0.223-1.372,0.046-1.861-0.473c-0.488-0.519-0.623-1.223-0.36-1.885l10.729-27.037c0.221-0.555,0.09-1.188-0.331-1.612
				c-10.562-10.604-16.379-24.188-16.379-38.25c0-6.977,1.403-13.814,4.171-20.321c0.324-0.762-0.031-1.643-0.794-1.967
				c-0.761-0.324-1.643,0.031-1.967,0.793c-2.926,6.88-4.41,14.112-4.41,21.495c0,14.55,5.874,28.597,16.562,39.662l-10.369,26.13
				c-0.693,1.747-0.324,3.681,0.965,5.049c0.926,0.984,2.174,1.511,3.465,1.511c0.504,0,1.016-0.081,1.517-0.246l39.385-12.965
				c5.845,1.371,11.857,2.065,17.878,2.065c38.269,0,69.403-27.457,69.403-61.206S123.439,107.383,85.17,107.383z"/>
		</g>
	</g>
	<g>
		<g>
			<path class="st5" d="M200.882,101.003c-0.099-0.689-0.345-1.626-0.739-2.809l-19.71-56.52c-0.197-0.624-0.436-1.116-0.715-1.479
				c-0.279-0.361-0.739-0.632-1.38-0.813c-0.641-0.18-1.536-0.295-2.685-0.345c-1.15-0.049-2.694-0.073-4.632-0.073
				c-1.676,0-3.022,0.024-4.041,0.073c-1.018,0.05-1.815,0.165-2.39,0.345c-0.575,0.182-0.994,0.444-1.257,0.789
				s-0.492,0.797-0.689,1.354l-19.661,56.569c-0.395,1.15-0.641,2.069-0.739,2.76c-0.099,0.689,0.016,1.224,0.345,1.602
				c0.328,0.378,0.92,0.615,1.774,0.714c0.854,0.099,2.036,0.148,3.548,0.148c1.412,0,2.554-0.033,3.425-0.099
				c0.87-0.066,1.543-0.189,2.019-0.37c0.477-0.18,0.821-0.426,1.035-0.738c0.213-0.313,0.386-0.698,0.518-1.158l4.04-12.467h23.948
				l4.287,12.812c0.131,0.428,0.296,0.772,0.493,1.035c0.197,0.263,0.542,0.468,1.035,0.615c0.492,0.148,1.207,0.247,2.143,0.296
				c0.936,0.05,2.241,0.074,3.917,0.074c1.609,0,2.874-0.042,3.794-0.123c0.92-0.083,1.56-0.296,1.922-0.641
				C200.849,102.21,200.981,101.693,200.882,101.003z M161.806,78.533l9.018-27.102h0.05l9.017,27.102H161.806z"/>
		</g>
	</g>
	<g>
		<g>
			<path class="st0" d="M172.297,50.958c-0.203-0.613-0.827-1.026-1.473-1.026c-0.645,0-1.22,0.414-1.423,1.026l-9.018,27.102
				c-0.152,0.458-0.076,0.96,0.206,1.351c0.282,0.391,0.734,0.623,1.217,0.623h18.084c0.482,0,0.935-0.231,1.217-0.623
				c0.282-0.391,0.358-0.894,0.206-1.351L172.297,50.958z M163.887,77.033l6.962-20.925l6.962,20.925H163.887z M202.368,100.791
				c-0.113-0.789-0.375-1.793-0.802-3.071c-0.002-0.006-0.004-0.013-0.007-0.02l-19.695-56.478
				c-0.252-0.796-0.564-1.431-0.959-1.944c-0.478-0.618-1.203-1.069-2.161-1.34c-0.761-0.213-1.75-0.344-3.027-0.399
				c-1.166-0.05-2.746-0.075-4.695-0.075c-1.691,0-3.075,0.025-4.114,0.075c-1.156,0.056-2.06,0.191-2.768,0.413
				c-0.873,0.276-1.546,0.716-1.998,1.31c-0.359,0.473-0.657,1.049-0.913,1.771l-19.663,56.575c-0.429,1.25-0.692,2.243-0.806,3.034
				c-0.202,1.417,0.268,2.305,0.697,2.797c0.588,0.677,1.482,1.076,2.735,1.221c0.922,0.106,2.139,0.158,3.72,0.158
				c1.439,0,2.629-0.035,3.539-0.103c1.023-0.078,1.821-0.229,2.435-0.462c0.767-0.289,1.354-0.725,1.745-1.297
				c0.303-0.444,0.545-0.979,0.705-1.541l3.704-11.429h21.777l3.933,11.75c0.181,0.59,0.426,1.094,0.728,1.497
				c0.393,0.523,1,0.911,1.801,1.15c0.614,0.185,1.432,0.302,2.497,0.358c0.965,0.051,2.272,0.076,3.997,0.076
				c1.635,0,2.955-0.043,3.929-0.129c1.28-0.116,2.203-0.459,2.824-1.051C202.026,103.16,202.58,102.276,202.368,100.791z
				 M198.435,101.702c-0.883,0.078-2.115,0.117-3.662,0.117c-1.647,0-2.938-0.024-3.839-0.072c-1.012-0.053-1.531-0.156-1.792-0.235
				c-0.172-0.052-0.26-0.098-0.275-0.098c-0.002,0-0.002,0-0.003,0.001c-0.055-0.078-0.15-0.247-0.257-0.593l-4.287-12.812
				c-0.205-0.612-0.778-1.024-1.423-1.024h-23.948c-0.65,0-1.227,0.419-1.427,1.038l-4.056,12.516
				c-0.086,0.302-0.192,0.547-0.313,0.724c-0.001,0.001-0.067,0.084-0.329,0.183c-0.233,0.089-0.701,0.208-1.601,0.277
				c-0.834,0.063-1.948,0.094-3.313,0.094c-1.444,0-2.58-0.046-3.376-0.139c-0.593-0.068-0.792-0.195-0.805-0.195
				c-0.008-0.021-0.041-0.139-0.001-0.418c0.084-0.594,0.31-1.43,0.671-2.479l19.658-56.562c0.181-0.511,0.354-0.796,0.469-0.946
				c0.011-0.014,0.116-0.142,0.512-0.267c0.31-0.097,0.911-0.224,2.014-0.278c0.989-0.047,2.325-0.071,3.969-0.071
				c1.907,0,3.444,0.024,4.567,0.072c1.28,0.056,1.981,0.188,2.341,0.289c0.481,0.137,0.598,0.282,0.6,0.284
				c0.118,0.154,0.297,0.456,0.488,1.059l19.706,56.51c0.362,1.085,0.589,1.939,0.674,2.536c0.022,0.153,0.019,0.245,0.028,0.269
				C199.337,101.531,199.063,101.646,198.435,101.702z"/>
		</g>
	</g>
	<g>
		<g>
			<path class="st5" d="M112.597,148.43c0-3.03-2.456-5.487-5.486-5.487H90.703v-5.045c0-3.03-2.456-5.486-5.486-5.486
				c-3.03,0-5.486,2.456-5.486,5.486v5.045H63.322c-3.03,0-5.486,2.457-5.486,5.487s2.457,5.486,5.486,5.486h3.165
				c-0.393,10.792,3.417,21.042,10.143,28.892c-2.757,1.485-5.783,2.578-9.022,3.183c-2.979,0.556-4.943,3.422-4.387,6.4
				c0.493,2.639,2.797,4.481,5.387,4.481c0.334,0,0.672-0.031,1.013-0.094c5.752-1.073,11.012-3.28,15.596-6.341
				c4.584,3.061,9.843,5.268,15.595,6.341c0.34,0.063,0.679,0.094,1.013,0.094c2.59,0,4.894-1.842,5.387-4.481
				c0.555-2.978-1.408-5.844-4.387-6.4c-3.239-0.604-6.265-1.698-9.022-3.183c6.726-7.85,10.536-18.1,10.143-28.892h3.165
				C110.141,153.917,112.597,151.46,112.597,148.43z M85.217,175.969c-5.219-5.934-8.146-13.791-7.74-22.052h15.481
				C93.363,162.178,90.435,170.035,85.217,175.969z"/>
		</g>
	</g>
	<g>
		<g>
			<path class="st0" d="M92.957,152.417H77.476c-0.8,0-1.459,0.627-1.498,1.426c-0.417,8.485,2.464,16.695,8.112,23.117
				c0.285,0.324,0.695,0.509,1.127,0.509c0.431,0,0.842-0.186,1.126-0.509c5.648-6.423,8.529-14.632,8.112-23.117
				C94.416,153.044,93.757,152.417,92.957,152.417z M85.217,173.621c-4.091-5.234-6.287-11.596-6.278-18.204h12.556
				C91.503,162.024,89.307,168.386,85.217,173.621z M107.111,155.417c3.852,0,6.986-3.134,6.986-6.986s-3.134-6.986-6.986-6.986
				H92.203v-3.545c0-3.852-3.134-6.986-6.986-6.986c-3.853,0-6.987,3.134-6.987,6.986v3.545H63.322
				c-3.852,0-6.986,3.134-6.986,6.986s3.134,6.986,6.986,6.986h1.637c-0.007,9.745,3.264,19.176,9.319,26.891
				c-2.211,1.02-4.54,1.761-6.946,2.21c-3.786,0.708-6.292,4.363-5.586,8.15c0.617,3.306,3.503,5.706,6.862,5.706
				c0.431,0,0.864-0.04,1.288-0.119c5.49-1.024,10.64-3.05,15.321-6.025c4.681,2.975,9.83,5.001,15.32,6.025
				c0.424,0.079,0.857,0.119,1.288,0.119c3.359,0,6.245-2.399,6.862-5.706c0.706-3.786-1.8-7.442-5.586-8.149
				c-2.406-0.449-4.734-1.19-6.946-2.21c6.055-7.715,9.326-17.146,9.319-26.891H107.111z M102.866,152.875
				c-0.283,0.293-0.434,0.688-0.419,1.096c0.371,10.171-3.104,20.066-9.783,27.861c-0.295,0.345-0.418,0.805-0.335,1.25
				c0.083,0.446,0.364,0.831,0.763,1.046c2.962,1.596,6.144,2.719,9.457,3.337c2.161,0.404,3.591,2.49,3.188,4.65
				c-0.352,1.887-1.998,3.256-3.913,3.256c-0.247,0-0.495-0.023-0.738-0.068c-5.416-1.011-10.476-3.067-15.037-6.114
				c-0.252-0.168-0.543-0.252-0.833-0.252c-0.291,0-0.581,0.084-0.833,0.252c-4.562,3.046-9.621,5.103-15.038,6.114
				c-0.243,0.045-0.491,0.068-0.738,0.068c-1.915,0-3.56-1.37-3.913-3.256c-0.403-2.161,1.027-4.247,3.188-4.65
				c3.313-0.619,6.496-1.741,9.458-3.337c0.399-0.215,0.68-0.6,0.763-1.046c0.083-0.446-0.04-0.906-0.336-1.25
				c-6.679-7.795-10.153-17.69-9.783-27.861c0.015-0.407-0.137-0.803-0.419-1.096c-0.283-0.293-0.672-0.459-1.08-0.459h-3.165
				c-2.198,0-3.986-1.788-3.986-3.986s1.788-3.986,3.986-3.986H79.73c0.829,0,1.5-0.671,1.5-1.5v-5.045
				c0-2.198,1.789-3.986,3.987-3.986c2.198,0,3.986,1.788,3.986,3.986v5.045c0,0.829,0.671,1.5,1.5,1.5h16.408
				c2.198,0,3.986,1.788,3.986,3.986s-1.788,3.986-3.986,3.986h-3.165C103.539,152.417,103.149,152.582,102.866,152.875z"/>
		</g>
	</g>
	<g>
		<g>
			<path class="st8" d="M220.522,116.123c-0.22-0.55-0.09-1.18,0.33-1.61c10.56-10.6,16.38-24.18,16.38-38.25
				c0-32.09-29.79-58.2-66.4-58.2c-2.51,0-5.01,0.12-7.48,0.38c33.08,3.28,58.88,27.96,58.88,57.82c0,14.07-5.82,27.65-16.38,38.25
				c-0.42,0.43-0.55,1.06-0.33,1.61l9.89,24.91l13.62,4.49c0.68,0.22,1.37,0.05,1.86-0.47s0.62-1.23,0.36-1.89L220.522,116.123z"/>
		</g>
	</g>
	<g>
		<g>
			<path class="st7" d="M85.172,110.382c-2.52,0-5.01,0.13-7.48,0.38c33.08,3.28,58.88,27.96,58.88,57.83
				c0,29.86-25.8,54.54-58.88,57.82c2.48,0.26,4.98,0.38,7.48,0.38c36.61,0,66.4-26.11,66.4-58.2
				C151.572,136.493,121.782,110.382,85.172,110.382z"/>
		</g>
	</g>
	<g>
		<g>
			<path class="st1" d="M75.961,50.448c-1.052,12.491-14.069,14.463-14.069,14.463c11.176,0.526,13.962,15.187,13.962,15.187
				c0.239-10.453,14.39-15.341,14.39-15.341C79.642,64.123,75.961,50.448,75.961,50.448z"/>
		</g>
	</g>
	<g>
		<g>
			<path class="st0" d="M90.332,63.259c-9.382-0.561-12.889-13.076-12.924-13.203c-0.19-0.702-0.847-1.163-1.583-1.102
				c-0.725,0.066-1.298,0.642-1.359,1.367c-0.938,11.131-12.318,13.031-12.799,13.106c-0.763,0.115-1.313,0.79-1.273,1.561
				c0.04,0.77,0.657,1.384,1.428,1.421c9.848,0.463,12.533,13.834,12.559,13.97c0.137,0.711,0.759,1.217,1.472,1.217
				c0.042,0,0.083-0.001,0.126-0.005c0.764-0.064,1.357-0.693,1.375-1.46c0.212-9.276,13.249-13.913,13.381-13.958
				c0.675-0.235,1.092-0.914,0.994-1.623C91.63,63.843,91.046,63.302,90.332,63.259z M75.678,74.602
				c-1.464-3.466-4.071-7.75-8.463-9.877c3.244-1.511,7.186-4.285,9.123-9.227c1.675,3.393,4.615,7.72,9.289,9.703
				C82.309,66.978,77.865,70.06,75.678,74.602z"/>
		</g>
	</g>
	<g>
		<g>
			<path class="st1" d="M52.521,68.791c-0.744,8.835-9.951,10.23-9.951,10.23c7.905,0.372,9.875,10.742,9.875,10.742
				c0.169-7.394,10.178-10.851,10.178-10.851C55.126,78.463,52.521,68.791,52.521,68.791z"/>
		</g>
	</g>
	<g>
		<g>
			<path class="st0" d="M62.713,77.414c-6.312-0.377-8.717-8.916-8.744-9.015c-0.19-0.703-0.857-1.169-1.582-1.102
				c-0.726,0.065-1.299,0.643-1.36,1.368c-0.633,7.519-8.357,8.822-8.681,8.873c-0.763,0.115-1.313,0.79-1.273,1.561
				c0.04,0.77,0.657,1.384,1.428,1.421c6.615,0.311,8.455,9.434,8.472,9.523c0.135,0.713,0.759,1.22,1.472,1.22
				c0.042,0,0.083-0.001,0.125-0.005c0.765-0.063,1.358-0.694,1.376-1.461c0.143-6.252,9.08-9.437,9.17-9.468
				c0.675-0.235,1.091-0.915,0.993-1.623S63.427,77.457,62.713,77.414z M52.355,84.885c-1.011-2.125-2.604-4.494-5.03-5.959
				c2.1-1.142,4.207-2.932,5.493-5.562c1.158,2.108,2.958,4.504,5.587,5.894C56.329,80.468,53.867,82.322,52.355,84.885z"/>
		</g>
	</g>
	<g>
		<g>
			<path class="st1" d="M52.521,39.995c-0.744,8.835-9.951,10.23-9.951,10.23c7.905,0.372,9.875,10.742,9.875,10.742
				c0.169-7.394,10.178-10.851,10.178-10.851C55.126,49.667,52.521,39.995,52.521,39.995z"/>
		</g>
	</g>
	<g>
		<g>
			<path class="st0" d="M62.713,48.618c-6.312-0.377-8.717-8.916-8.744-9.015c-0.19-0.703-0.857-1.164-1.582-1.102
				c-0.726,0.065-1.299,0.643-1.36,1.368c-0.633,7.519-8.357,8.822-8.681,8.873c-0.763,0.115-1.313,0.79-1.273,1.561
				c0.04,0.77,0.657,1.384,1.428,1.421c6.615,0.311,8.455,9.434,8.472,9.523c0.135,0.713,0.759,1.22,1.472,1.22
				c0.042,0,0.083-0.001,0.125-0.005c0.765-0.063,1.358-0.694,1.376-1.461c0.143-6.252,9.08-9.437,9.17-9.468
				c0.675-0.235,1.091-0.915,0.993-1.623S63.427,48.661,62.713,48.618z M52.355,56.089c-1.011-2.125-2.604-4.494-5.03-5.959
				c2.1-1.142,4.207-2.932,5.493-5.562c1.158,2.108,2.958,4.504,5.587,5.894C56.329,51.672,53.867,53.526,52.355,56.089z"/>
		</g>
	</g>
</g>
</svg>
