<?xml version="1.0" encoding="utf-8"?>
<!-- Generator: Adobe Illustrator 19.1.0, SVG Export Plug-In . SVG Version: 6.00 Build 0)  -->
<svg version="1.1" xmlns="http://www.w3.org/2000/svg" xmlns:xlink="http://www.w3.org/1999/xlink" x="0px" y="0px"
	 viewBox="0 0 270.6 270.6" enable-background="new 0 0 270.6 270.6" xml:space="preserve">
<g id="CREATIVE_PROCESS">
</g>
<g id="LOGO_DESIGN">
</g>
<g id="INNOVATION">
</g>
<g id="DESIGN_TOOLS">
</g>
<g id="INTERFACE">
</g>
<g id="WEB_CODING">
</g>
<g id="WIREFRAMING_TOOLS">
	<rect fill="#5EB4E7" width="270.6" height="270.6"/>
	<g>
		<circle fill="#2E95D1" cx="139" cy="56.4" r="21.7"/>
		<g>
			<path fill="#282D33" d="M132.3,68.1V44.7l20.2,11.7L132.3,68.1z M136.3,51.7v9.5l8.2-4.8L136.3,51.7z"/>
		</g>
		<g>
			<g>
				<rect x="199.5" y="122.4" fill="#282D33" width="4" height="13.9"/>
			</g>
			<g>
				<rect x="194.6" y="127.4" fill="#282D33" width="13.9" height="4"/>
			</g>
		</g>
		<g>
			<polygon fill="#2E95D1" points="109.2,176.7 85.5,176.7 84,176.7 84,198.5 85.5,198.5 109.2,198.5 210.2,198.5 210.2,176.7 			
				"/>
			<g>
				<rect x="94.1" y="178.1" fill="#282D33" width="4" height="8.6"/>
			</g>
			<g>
				<rect x="102.6" y="178.1" fill="#282D33" width="4" height="4.6"/>
			</g>
			<g>
				<rect x="111.2" y="178.1" fill="#282D33" width="4" height="8.6"/>
			</g>
			<g>
				<rect x="119.8" y="178.1" fill="#282D33" width="4" height="4.6"/>
			</g>
			<g>
				<rect x="128.4" y="178.1" fill="#282D33" width="4" height="8.6"/>
			</g>
			<g>
				<rect x="137" y="178.1" fill="#282D33" width="4" height="4.6"/>
			</g>
			<g>
				<rect x="145.5" y="178.1" fill="#282D33" width="4" height="8.6"/>
			</g>
			<g>
				<rect x="154.1" y="178.1" fill="#282D33" width="4" height="4.6"/>
			</g>
			<g>
				<rect x="162.7" y="178.1" fill="#282D33" width="4" height="8.6"/>
			</g>
			<g>
				<rect x="171.3" y="178.1" fill="#282D33" width="4" height="4.6"/>
			</g>
			<g>
				<rect x="179.9" y="178.1" fill="#282D33" width="4" height="8.6"/>
			</g>
			<g>
				<rect x="188.4" y="178.1" fill="#282D33" width="4" height="4.6"/>
			</g>
			<g>
				<rect x="197" y="178.1" fill="#282D33" width="4" height="8.6"/>
			</g>
		</g>
		<g>
			<g>
				<polygon fill="#282D33" points="101.2,69.9 56.1,69.9 56.1,52.2 110.6,52.2 110.6,56.2 60.1,56.2 60.1,65.9 101.2,65.9 				"/>
			</g>
			<g>
				<rect x="63.5" y="58.9" fill="#282D33" width="4.5" height="4"/>
			</g>
			<g>
				<rect x="71.2" y="58.9" fill="#282D33" width="4.5" height="4"/>
			</g>
			<g>
				<rect x="78.9" y="58.9" fill="#282D33" width="4.5" height="4"/>
			</g>
		</g>
		<g>
			<rect x="81.4" y="94.8" fill="#FFFFFF" width="103.1" height="29.7"/>
			<rect x="81.4" y="129.9" fill="#2E95D1" width="30.8" height="16.6"/>
			<g>
				<rect x="81.4" y="151" fill="#282D33" width="30.8" height="4"/>
			</g>
			<g>
				<rect x="81.4" y="160.4" fill="#282D33" width="30.8" height="4"/>
			</g>
			<g>
				<rect x="117.5" y="151" fill="#282D33" width="30.8" height="4"/>
			</g>
			<g>
				<rect x="109" y="107.5" fill="#282D33" width="47.9" height="4"/>
			</g>
			<g>
				<rect x="117.5" y="160.4" fill="#282D33" width="30.8" height="4"/>
			</g>
			<g>
				<rect x="153.7" y="151" fill="#282D33" width="30.8" height="4"/>
			</g>
			<g>
				<rect x="153.7" y="160.4" fill="#282D33" width="30.8" height="4"/>
			</g>
			<rect x="117.5" y="129.9" fill="#2E95D1" width="30.8" height="16.6"/>
			<rect x="153.7" y="129.9" fill="#2E95D1" width="30.8" height="16.6"/>
			<g>
				<rect x="91.8" y="85.4" fill="#282D33" width="39.3" height="4"/>
			</g>
			<g>
				<rect x="81.4" y="85.4" fill="#282D33" width="4.9" height="4"/>
			</g>
		</g>
		<g>
			<g>
				<path fill="#282D33" d="M224.5,113.6H167V64.9h57.6V113.6z M171,109.6h49.6V68.9H171V109.6z"/>
			</g>
			<g>
				<polygon fill="#282D33" points="219.6,104.1 209.4,95.4 197.1,103.6 181.3,86.7 170.4,97.9 167.5,95.1 181.4,80.8 197.7,98.4 
					209.7,90.4 222.2,101.1 				"/>
			</g>
			<path fill="#FFFFFF" d="M205.1,80.1c0,3.5-2.9,6.4-6.4,6.4c-3.5,0-6.4-2.9-6.4-6.4c0-3.5,2.9-6.4,6.4-6.4
				C202.2,73.7,205.1,76.6,205.1,80.1z"/>
		</g>
		<g>
			<g>
				<path fill="#282D33" d="M68.6,91.2h-4v-3h-4.4v3h-4v-4.1c0-1.6,1.3-2.9,2.9-2.9h6.6c1.6,0,2.9,1.3,2.9,2.9V91.2z"/>
			</g>
			<g>
				<polygon fill="#282D33" points="62.4,166.1 56.2,152.4 56.2,150.2 60.2,150.2 60.2,151.5 62.4,156.4 64.6,151.5 64.6,150.2 
					68.6,150.2 68.6,152.4 				"/>
			</g>
			<g>
				<path fill="#282D33" d="M68.7,151.9H56.1V93.7h12.6V151.9z M60.1,147.9h4.6V97.7h-4.6V147.9z"/>
			</g>
		</g>
		<g>
			<g>
				<rect x="50.6" y="176.9" fill="#282D33" width="4" height="4"/>
			</g>
			<g>
				<rect x="59.3" y="176.9" fill="#282D33" width="4.7" height="4"/>
			</g>
			<g>
				<rect x="68.6" y="176.9" fill="#282D33" width="4" height="4"/>
			</g>
			<g>
				<rect x="68.6" y="185.6" fill="#282D33" width="4" height="4.7"/>
			</g>
			<g>
				<rect x="68.6" y="194.9" fill="#282D33" width="4" height="4"/>
			</g>
			<g>
				<rect x="59.3" y="194.9" fill="#282D33" width="4.7" height="4"/>
			</g>
			<g>
				<rect x="50.6" y="194.9" fill="#282D33" width="4" height="4"/>
			</g>
			<g>
				<rect x="50.6" y="185.6" fill="#282D33" width="4" height="4.7"/>
			</g>
		</g>
	</g>
</g>
<g id="PROTOTYPE">
</g>
<g id="BRAINSTORMING">
</g>
<g id="PREMIUM_SERVICE">
</g>
<g id="GRAPHIC_DESIGN_SOFTWARE">
</g>
<g id="UNDER_CONSTRUCTION">
</g>
<g id="SERVICES">
</g>
<g id="THINK_OUTSIDE_THE_BOX">
</g>
<g id="VISION">
</g>
<g id="GRAPHIC_DESIGN">
</g>
</svg>
